<svg xmlns="http://www.w3.org/2000/svg" xmlns:xlink="http://www.w3.org/1999/xlink" width="512" zoomAndPan="magnify" viewBox="0 0 384 383.999986" height="512" preserveAspectRatio="xMidYMid meet" version="1.0"><defs><clipPath id="e708e2e05c"><path d="M 168 70.09375 L 216 70.09375 L 216 135 L 168 135 Z M 168 70.09375 " clip-rule="nonzero"/></clipPath><clipPath id="b427391b3a"><path d="M 227 143 L 297 143 L 297 313.84375 L 227 313.84375 Z M 227 143 " clip-rule="nonzero"/></clipPath><clipPath id="0018bf6cbb"><path d="M 88 143 L 158 143 L 158 313.84375 L 88 313.84375 Z M 88 143 " clip-rule="nonzero"/></clipPath><clipPath id="3723151e12"><path d="M 277 143 L 345.898438 143 L 345.898438 313.84375 L 277 313.84375 Z M 277 143 " clip-rule="nonzero"/></clipPath><clipPath id="573371fd0c"><path d="M 187 143 L 197 143 L 197 313.84375 L 187 313.84375 Z M 187 143 " clip-rule="nonzero"/></clipPath><clipPath id="3fa37db3be"><path d="M 38.398438 143 L 108 143 L 108 313.84375 L 38.398438 313.84375 Z M 38.398438 143 " clip-rule="nonzero"/></clipPath></defs><rect x="-38.4" width="460.8" fill="#ffffff" y="-38.399999" height="460.799983" fill-opacity="1"/><rect x="-38.4" width="460.8" fill="#1b2747" y="-38.399999" height="460.799983" fill-opacity="1"/><g clip-path="url(#e708e2e05c)"><path fill="#f0cd56" d="M 192.15625 134.726562 L 168.800781 102.410156 L 192.15625 70.09375 L 215.511719 102.410156 Z M 179.476562 102.410156 L 192.15625 119.949219 L 204.835938 102.410156 L 192.15625 84.867188 Z M 179.476562 102.410156 " fill-opacity="1" fill-rule="nonzero"/></g><g clip-path="url(#b427391b3a)"><path fill="#f0cd56" d="M 296.074219 197.574219 C 296.074219 199.605469 295.960938 201.632812 295.730469 203.65625 C 295.503906 205.675781 295.160156 207.679688 294.707031 209.660156 C 294.25 211.644531 293.6875 213.59375 293.011719 215.511719 C 292.335938 217.429688 291.554688 219.304688 290.667969 221.136719 C 289.78125 222.96875 288.792969 224.742188 287.707031 226.464844 C 286.621094 228.183594 285.4375 229.835938 284.164062 231.425781 C 282.890625 233.011719 281.53125 234.519531 280.085938 235.957031 C 278.644531 237.390625 277.125 238.738281 275.527344 240 C 272.820312 242.136719 269.9375 244 266.875 245.589844 C 260.414062 248.929688 253.558594 250.886719 246.304688 251.460938 L 246.304688 313.84375 L 237.621094 313.84375 L 237.621094 242.777344 C 239.039062 242.917969 240.488281 242.980469 241.953125 242.980469 C 243.414062 242.980469 244.863281 242.917969 246.28125 242.777344 C 246.875 242.722656 247.449219 242.660156 248.035156 242.570312 C 254.84375 241.675781 261.117188 239.34375 266.851562 235.5625 C 267.636719 235.050781 268.40625 234.511719 269.15625 233.949219 C 269.910156 233.390625 270.644531 232.804688 271.359375 232.199219 C 272.074219 231.59375 272.773438 230.964844 273.449219 230.3125 C 274.125 229.664062 274.78125 228.992188 275.417969 228.304688 C 276.054688 227.613281 276.667969 226.902344 277.257812 226.175781 C 277.851562 225.445312 278.417969 224.699219 278.964844 223.9375 C 279.507812 223.171875 280.03125 222.394531 280.527344 221.597656 C 281.023438 220.800781 281.496094 219.992188 281.941406 219.164062 C 282.390625 218.339844 282.808594 217.503906 283.203125 216.652344 C 283.597656 215.800781 283.96875 214.9375 284.308594 214.0625 C 284.648438 213.191406 284.960938 212.308594 285.25 211.414062 C 285.535156 210.519531 285.792969 209.617188 286.023438 208.710938 C 286.253906 207.800781 286.457031 206.882812 286.628906 205.964844 C 286.804688 205.042969 286.949219 204.113281 287.0625 203.183594 C 287.179688 202.253906 287.265625 201.320312 287.324219 200.382812 C 287.382812 199.449219 287.414062 198.511719 287.414062 197.574219 C 287.414062 196.632812 287.382812 195.699219 287.324219 194.761719 C 287.265625 193.824219 287.179688 192.890625 287.0625 191.960938 C 286.949219 191.03125 286.804688 190.105469 286.628906 189.183594 C 286.457031 188.261719 286.253906 187.34375 286.023438 186.4375 C 285.792969 185.527344 285.535156 184.625 285.25 183.730469 C 284.960938 182.839844 284.648438 181.953125 284.308594 181.082031 C 283.96875 180.207031 283.597656 179.34375 283.203125 178.492188 C 282.808594 177.640625 282.390625 176.804688 281.941406 175.980469 C 281.496094 175.152344 281.023438 174.34375 280.527344 173.546875 C 280.03125 172.75 279.507812 171.972656 278.964844 171.207031 C 278.417969 170.445312 277.851562 169.699219 277.257812 168.96875 C 276.667969 168.242188 276.054688 167.53125 275.417969 166.84375 C 274.78125 166.152344 274.125 165.480469 273.449219 164.832031 C 272.773438 164.179688 272.074219 163.554688 271.359375 162.945312 C 270.644531 162.339844 269.910156 161.753906 269.15625 161.195312 C 268.40625 160.632812 267.636719 160.09375 266.851562 159.582031 C 264.128906 157.792969 261.242188 156.316406 258.199219 155.15625 C 254.921875 153.894531 251.539062 153.03125 248.054688 152.574219 C 247.472656 152.484375 246.898438 152.421875 246.300781 152.367188 C 244.886719 152.226562 243.433594 152.160156 241.972656 152.160156 C 240.511719 152.160156 239.0625 152.226562 237.640625 152.367188 C 237.046875 152.421875 236.472656 152.484375 235.886719 152.574219 C 233.21875 149.96875 230.335938 147.628906 227.238281 145.546875 C 230.644531 144.578125 234.113281 143.960938 237.640625 143.683594 C 239.070312 143.566406 240.511719 143.511719 241.972656 143.511719 C 243.433594 143.511719 244.871094 143.566406 246.300781 143.683594 C 253.558594 144.257812 260.417969 146.21875 266.878906 149.570312 C 269.070312 150.703125 271.171875 151.984375 273.1875 153.40625 C 275.203125 154.828125 277.109375 156.382812 278.914062 158.066406 C 280.714844 159.75 282.394531 161.546875 283.949219 163.460938 C 285.507812 165.371094 286.925781 167.382812 288.207031 169.488281 C 289.488281 171.59375 290.617188 173.777344 291.601562 176.039062 C 292.582031 178.300781 293.40625 180.617188 294.070312 182.992188 C 294.738281 185.363281 295.238281 187.773438 295.574219 190.214844 C 295.90625 192.65625 296.074219 195.109375 296.074219 197.574219 Z M 296.074219 197.574219 " fill-opacity="1" fill-rule="nonzero"/></g><g clip-path="url(#0018bf6cbb)"><path fill="#f0cd56" d="M 157.089844 145.546875 C 153.996094 147.628906 151.113281 149.96875 148.441406 152.574219 C 147.859375 152.484375 147.285156 152.421875 146.6875 152.367188 C 145.261719 152.226562 143.808594 152.160156 142.347656 152.160156 C 140.886719 152.160156 139.445312 152.226562 138.027344 152.367188 C 137.433594 152.421875 136.847656 152.484375 136.261719 152.574219 C 129.460938 153.484375 123.195312 155.820312 117.457031 159.582031 C 116.671875 160.09375 115.902344 160.632812 115.152344 161.195312 C 114.398438 161.753906 113.664062 162.339844 112.949219 162.945312 C 112.230469 163.550781 111.535156 164.179688 110.859375 164.832031 C 110.179688 165.480469 109.523438 166.152344 108.886719 166.839844 C 108.253906 167.53125 107.640625 168.242188 107.046875 168.96875 C 106.457031 169.699219 105.886719 170.445312 105.34375 171.207031 C 104.796875 171.972656 104.277344 172.75 103.777344 173.546875 C 103.28125 174.34375 102.808594 175.152344 102.363281 175.976562 C 101.917969 176.804688 101.496094 177.640625 101.101562 178.492188 C 100.707031 179.34375 100.339844 180.207031 99.996094 181.082031 C 99.65625 181.953125 99.34375 182.839844 99.054688 183.730469 C 98.769531 184.625 98.511719 185.527344 98.28125 186.433594 C 98.050781 187.34375 97.847656 188.261719 97.675781 189.183594 C 97.503906 190.105469 97.355469 191.03125 97.242188 191.960938 C 97.125 192.890625 97.039062 193.824219 96.980469 194.761719 C 96.921875 195.699219 96.894531 196.632812 96.894531 197.574219 C 96.894531 198.511719 96.921875 199.449219 96.980469 200.382812 C 97.039062 201.320312 97.125 202.253906 97.242188 203.183594 C 97.355469 204.113281 97.503906 205.042969 97.675781 205.964844 C 97.847656 206.886719 98.050781 207.800781 98.28125 208.710938 C 98.511719 209.621094 98.769531 210.519531 99.054688 211.414062 C 99.34375 212.308594 99.65625 213.191406 99.996094 214.066406 C 100.339844 214.9375 100.707031 215.800781 101.101562 216.652344 C 101.496094 217.503906 101.917969 218.339844 102.363281 219.167969 C 102.808594 219.992188 103.28125 220.800781 103.777344 221.597656 C 104.277344 222.394531 104.796875 223.175781 105.34375 223.9375 C 105.886719 224.703125 106.457031 225.449219 107.046875 226.175781 C 107.640625 226.902344 108.253906 227.613281 108.886719 228.304688 C 109.523438 228.996094 110.179688 229.664062 110.859375 230.316406 C 111.535156 230.964844 112.230469 231.59375 112.949219 232.199219 C 113.664062 232.804688 114.398438 233.390625 115.152344 233.953125 C 115.902344 234.511719 116.671875 235.050781 117.457031 235.5625 C 123.191406 239.335938 129.464844 241.671875 136.269531 242.570312 C 136.859375 242.660156 137.441406 242.722656 138.035156 242.777344 C 139.453125 242.917969 140.894531 242.980469 142.355469 242.980469 C 143.820312 242.980469 145.269531 242.917969 146.695312 242.777344 L 146.695312 313.84375 L 138.027344 313.84375 L 138.027344 251.460938 C 134.492188 251.183594 131.015625 250.5625 127.601562 249.597656 C 124.082031 248.613281 120.699219 247.269531 117.457031 245.578125 C 114.390625 244 111.503906 242.140625 108.796875 240 C 108 239.371094 107.21875 238.71875 106.457031 238.046875 C 105.695312 237.371094 104.949219 236.675781 104.226562 235.960938 C 103.503906 235.246094 102.800781 234.511719 102.121094 233.753906 C 101.4375 233 100.78125 232.226562 100.140625 231.433594 C 99.503906 230.640625 98.890625 229.832031 98.296875 229.003906 C 97.703125 228.179688 97.136719 227.335938 96.589844 226.476562 C 96.046875 225.617188 95.527344 224.742188 95.03125 223.855469 C 94.539062 222.96875 94.066406 222.066406 93.625 221.152344 C 93.179688 220.234375 92.761719 219.308594 92.371094 218.371094 C 91.976562 217.433594 91.613281 216.484375 91.273438 215.523438 C 90.9375 214.566406 90.625 213.597656 90.34375 212.621094 C 90.058594 211.644531 89.804688 210.660156 89.574219 209.671875 C 89.347656 208.679688 89.148438 207.683594 88.976562 206.679688 C 88.804688 205.679688 88.664062 204.671875 88.546875 203.664062 C 88.433594 202.652344 88.347656 201.640625 88.289062 200.625 C 88.230469 199.609375 88.203125 198.59375 88.203125 197.578125 C 88.203125 196.558594 88.230469 195.542969 88.289062 194.527344 C 88.347656 193.515625 88.433594 192.5 88.546875 191.492188 C 88.664062 190.480469 88.804688 189.476562 88.976562 188.472656 C 89.148438 187.46875 89.347656 186.472656 89.574219 185.484375 C 89.804688 184.492188 90.058594 183.507812 90.34375 182.53125 C 90.625 181.554688 90.9375 180.589844 91.273438 179.628906 C 91.613281 178.671875 91.976562 177.722656 92.371094 176.78125 C 92.761719 175.84375 93.179688 174.917969 93.625 174.003906 C 94.066406 173.089844 94.539062 172.1875 95.03125 171.296875 C 95.527344 170.410156 96.046875 169.535156 96.589844 168.675781 C 97.136719 167.820312 97.703125 166.976562 98.296875 166.148438 C 98.890625 165.320312 99.503906 164.511719 100.140625 163.71875 C 100.78125 162.925781 101.4375 162.152344 102.121094 161.398438 C 102.800781 160.644531 103.503906 159.90625 104.226562 159.191406 C 104.949219 158.476562 105.695312 157.78125 106.457031 157.109375 C 107.21875 156.433594 108 155.785156 108.796875 155.152344 C 114.429688 150.707031 120.695312 147.503906 127.601562 145.546875 C 131.015625 144.578125 134.492188 143.960938 138.027344 143.683594 C 139.457031 143.566406 140.898438 143.511719 142.347656 143.511719 C 143.796875 143.511719 145.261719 143.566406 146.6875 143.683594 C 150.21875 143.960938 153.683594 144.578125 157.089844 145.546875 Z M 157.089844 145.546875 " fill-opacity="1" fill-rule="nonzero"/></g><g clip-path="url(#3723151e12)"><path fill="#f0cd56" d="M 345.875 197.574219 C 345.875 199.253906 345.796875 200.929688 345.640625 202.601562 C 345.484375 204.273438 345.25 205.9375 344.9375 207.589844 C 344.625 209.238281 344.238281 210.871094 343.773438 212.488281 C 343.308594 214.101562 342.769531 215.691406 342.160156 217.257812 C 341.546875 218.820312 340.863281 220.355469 340.105469 221.855469 C 339.351562 223.355469 338.527344 224.820312 337.632812 226.242188 C 336.742188 227.667969 335.785156 229.046875 334.765625 230.382812 C 333.742188 231.71875 332.664062 233.003906 331.519531 234.238281 C 330.378906 235.472656 329.183594 236.652344 327.933594 237.777344 C 326.683594 238.898438 325.382812 239.960938 324.03125 240.964844 C 322.679688 241.964844 321.289062 242.902344 319.847656 243.777344 C 318.410156 244.648438 316.9375 245.453125 315.421875 246.1875 C 313.910156 246.921875 312.367188 247.585938 310.792969 248.175781 C 309.21875 248.765625 307.621094 249.285156 305.996094 249.726562 C 304.375 250.167969 302.734375 250.535156 301.078125 250.824219 C 299.417969 251.113281 297.753906 251.328125 296.074219 251.460938 L 296.074219 313.84375 L 287.414062 313.84375 L 287.414062 242.777344 C 288.835938 242.917969 290.285156 242.980469 291.746094 242.980469 C 293.210938 242.980469 294.660156 242.917969 296.074219 242.777344 C 297.46875 242.644531 298.851562 242.449219 300.222656 242.1875 C 301.597656 241.925781 302.957031 241.601562 304.300781 241.21875 C 305.644531 240.832031 306.96875 240.382812 308.273438 239.875 C 309.574219 239.367188 310.851562 238.800781 312.101562 238.175781 C 313.351562 237.550781 314.570312 236.871094 315.757812 236.132812 C 316.945312 235.394531 318.097656 234.601562 319.210938 233.757812 C 320.324219 232.914062 321.398438 232.023438 322.429688 231.078125 C 323.460938 230.136719 324.449219 229.148438 325.390625 228.113281 C 326.328125 227.082031 327.21875 226.007812 328.0625 224.890625 C 328.902344 223.773438 329.691406 222.621094 330.425781 221.433594 C 331.160156 220.246094 331.839844 219.027344 332.460938 217.773438 C 333.082031 216.523438 333.648438 215.246094 334.152344 213.945312 C 334.65625 212.640625 335.097656 211.320312 335.480469 209.976562 C 335.863281 208.632812 336.179688 207.273438 336.4375 205.898438 C 336.695312 204.527344 336.886719 203.144531 337.015625 201.753906 C 337.144531 200.363281 337.207031 198.96875 337.207031 197.574219 C 337.207031 196.175781 337.144531 194.78125 337.015625 193.390625 C 336.886719 192 336.695312 190.617188 336.4375 189.246094 C 336.179688 187.871094 335.863281 186.515625 335.480469 185.171875 C 335.097656 183.828125 334.65625 182.503906 334.152344 181.199219 C 333.648438 179.898438 333.082031 178.621094 332.460938 177.371094 C 331.839844 176.117188 331.160156 174.898438 330.425781 173.710938 C 329.691406 172.523438 328.902344 171.371094 328.0625 170.253906 C 327.21875 169.140625 326.328125 168.0625 325.390625 167.03125 C 324.449219 165.996094 323.460938 165.007812 322.429688 164.066406 C 321.398438 163.125 320.324219 162.230469 319.210938 161.386719 C 318.097656 160.542969 316.945312 159.75 315.757812 159.011719 C 314.570312 158.277344 313.351562 157.59375 312.101562 156.96875 C 310.851562 156.34375 309.574219 155.777344 308.273438 155.269531 C 306.96875 154.761719 305.644531 154.3125 304.300781 153.929688 C 302.957031 153.542969 301.597656 153.21875 300.222656 152.957031 C 298.851562 152.699219 297.46875 152.5 296.074219 152.367188 C 294.660156 152.226562 293.210938 152.160156 291.746094 152.160156 C 290.285156 152.160156 288.835938 152.226562 287.414062 152.367188 C 286.820312 152.421875 286.25 152.484375 285.660156 152.574219 C 282.992188 149.96875 280.109375 147.628906 277.015625 145.546875 C 280.417969 144.578125 283.886719 143.960938 287.414062 143.683594 C 288.84375 143.566406 290.285156 143.511719 291.746094 143.511719 C 293.210938 143.511719 294.648438 143.566406 296.074219 143.683594 C 297.753906 143.820312 299.417969 144.03125 301.078125 144.320312 C 302.734375 144.609375 304.375 144.976562 305.996094 145.417969 C 307.617188 145.863281 309.21875 146.378906 310.792969 146.96875 C 312.367188 147.5625 313.910156 148.226562 315.421875 148.960938 C 316.9375 149.695312 318.410156 150.5 319.847656 151.371094 C 321.285156 152.242188 322.679688 153.179688 324.03125 154.183594 C 325.378906 155.183594 326.679688 156.246094 327.933594 157.371094 C 329.183594 158.496094 330.378906 159.671875 331.519531 160.90625 C 332.660156 162.140625 333.742188 163.425781 334.761719 164.761719 C 335.785156 166.097656 336.742188 167.476562 337.632812 168.902344 C 338.523438 170.328125 339.347656 171.789062 340.105469 173.289062 C 340.859375 174.792969 341.546875 176.324219 342.15625 177.890625 C 342.769531 179.453125 343.308594 181.042969 343.773438 182.660156 C 344.238281 184.273438 344.625 185.90625 344.9375 187.558594 C 345.25 189.207031 345.484375 190.871094 345.640625 192.542969 C 345.796875 194.214844 345.875 195.890625 345.875 197.574219 Z M 345.875 197.574219 " fill-opacity="1" fill-rule="nonzero"/></g><g clip-path="url(#573371fd0c)"><path fill="#f0cd56" d="M 187.824219 143.511719 L 196.484375 143.511719 L 196.484375 313.84375 L 187.824219 313.84375 Z M 187.824219 143.511719 " fill-opacity="1" fill-rule="nonzero"/></g><g clip-path="url(#3fa37db3be)"><path fill="#f0cd56" d="M 107.316406 145.546875 C 104.214844 147.625 101.328125 149.96875 98.65625 152.574219 C 98.070312 152.484375 97.488281 152.421875 96.902344 152.367188 C 95.472656 152.230469 94.03125 152.160156 92.574219 152.160156 C 91.109375 152.160156 89.660156 152.226562 88.242188 152.367188 C 86.847656 152.5 85.464844 152.699219 84.09375 152.957031 C 82.71875 153.21875 81.359375 153.542969 80.015625 153.929688 C 78.671875 154.3125 77.347656 154.761719 76.046875 155.269531 C 74.742188 155.777344 73.464844 156.34375 72.214844 156.96875 C 70.964844 157.59375 69.746094 158.277344 68.558594 159.011719 C 67.371094 159.75 66.21875 160.542969 65.105469 161.386719 C 63.992188 162.230469 62.917969 163.125 61.886719 164.066406 C 60.855469 165.007812 59.867188 165.996094 58.929688 167.03125 C 57.988281 168.0625 57.097656 169.140625 56.253906 170.253906 C 55.414062 171.371094 54.625 172.523438 53.890625 173.710938 C 53.15625 174.898438 52.476562 176.117188 51.855469 177.371094 C 51.234375 178.621094 50.671875 179.898438 50.164062 181.199219 C 49.660156 182.503906 49.21875 183.828125 48.835938 185.171875 C 48.453125 186.515625 48.136719 187.871094 47.878906 189.246094 C 47.621094 190.617188 47.429688 192 47.300781 193.390625 C 47.171875 194.78125 47.109375 196.175781 47.109375 197.574219 C 47.109375 198.96875 47.171875 200.363281 47.300781 201.753906 C 47.429688 203.144531 47.621094 204.527344 47.878906 205.898438 C 48.136719 207.273438 48.453125 208.632812 48.835938 209.976562 C 49.21875 211.320312 49.660156 212.640625 50.164062 213.945312 C 50.671875 215.246094 51.234375 216.523438 51.855469 217.773438 C 52.476562 219.027344 53.15625 220.246094 53.890625 221.433594 C 54.625 222.621094 55.414062 223.773438 56.253906 224.890625 C 57.097656 226.007812 57.988281 227.082031 58.929688 228.113281 C 59.867188 229.148438 60.855469 230.136719 61.886719 231.078125 C 62.917969 232.023438 63.992188 232.914062 65.105469 233.757812 C 66.21875 234.601562 67.371094 235.394531 68.558594 236.132812 C 69.746094 236.871094 70.964844 237.550781 72.214844 238.175781 C 73.464844 238.800781 74.742188 239.367188 76.046875 239.875 C 77.347656 240.382812 78.671875 240.832031 80.015625 241.21875 C 81.359375 241.601562 82.71875 241.925781 84.09375 242.1875 C 85.464844 242.449219 86.847656 242.644531 88.242188 242.777344 C 89.660156 242.917969 91.109375 242.980469 92.574219 242.980469 C 94.035156 242.980469 95.472656 242.917969 96.902344 242.777344 L 96.902344 313.84375 L 88.21875 313.84375 L 88.21875 251.460938 C 86.542969 251.328125 84.875 251.113281 83.21875 250.824219 C 81.5625 250.535156 79.921875 250.167969 78.300781 249.726562 C 76.675781 249.285156 75.078125 248.769531 73.503906 248.175781 C 71.929688 247.585938 70.382812 246.921875 68.871094 246.1875 C 67.359375 245.453125 65.882812 244.648438 64.445312 243.777344 C 63.007812 242.902344 61.613281 241.96875 60.261719 240.964844 C 58.914062 239.960938 57.613281 238.898438 56.359375 237.777344 C 55.109375 236.652344 53.914062 235.472656 52.773438 234.238281 C 51.632812 233.003906 50.550781 231.71875 49.53125 230.382812 C 48.507812 229.050781 47.550781 227.667969 46.660156 226.246094 C 45.769531 224.820312 44.945312 223.359375 44.1875 221.855469 C 43.433594 220.355469 42.75 218.824219 42.136719 217.257812 C 41.523438 215.691406 40.984375 214.101562 40.519531 212.488281 C 40.058594 210.871094 39.667969 209.238281 39.355469 207.589844 C 39.046875 205.9375 38.8125 204.273438 38.65625 202.601562 C 38.5 200.929688 38.421875 199.253906 38.421875 197.574219 C 38.421875 195.890625 38.5 194.214844 38.65625 192.542969 C 38.8125 190.871094 39.046875 189.207031 39.355469 187.558594 C 39.667969 185.90625 40.058594 184.273438 40.519531 182.65625 C 40.984375 181.042969 41.523438 179.453125 42.136719 177.886719 C 42.75 176.324219 43.433594 174.789062 44.1875 173.289062 C 44.945312 171.789062 45.769531 170.324219 46.660156 168.898438 C 47.550781 167.476562 48.507812 166.097656 49.53125 164.761719 C 50.550781 163.425781 51.632812 162.140625 52.773438 160.90625 C 53.914062 159.671875 55.109375 158.492188 56.359375 157.367188 C 57.613281 156.246094 58.914062 155.183594 60.261719 154.179688 C 61.613281 153.179688 63.007812 152.242188 64.445312 151.367188 C 65.882812 150.496094 67.359375 149.691406 68.871094 148.957031 C 70.382812 148.222656 71.929688 147.558594 73.503906 146.96875 C 75.078125 146.378906 76.675781 145.859375 78.300781 145.417969 C 79.921875 144.976562 81.5625 144.609375 83.21875 144.320312 C 84.875 144.03125 86.542969 143.820312 88.21875 143.683594 C 89.648438 143.566406 91.089844 143.511719 92.550781 143.511719 C 94.015625 143.511719 95.453125 143.566406 96.878906 143.683594 C 100.421875 143.957031 103.898438 144.578125 107.316406 145.546875 Z M 107.316406 145.546875 " fill-opacity="1" fill-rule="nonzero"/></g></svg>